<svg width="32" height="32" viewBox="0 0 32 32" fill="none" xmlns="http://www.w3.org/2000/svg">
<line x1="27" y1="20" x2="27" y2="8" stroke="#263942" stroke-width="2" stroke-linecap="round" stroke-linejoin="round"/>
<mask id="path-2-inside-1" fill="white">
<path d="M0 20C0 19.4477 0.447715 19 1 19H31C31.5523 19 32 19.4477 32 20V25C32 27.2091 30.2091 29 28 29H4C1.79086 29 0 27.2091 0 25V20Z"/>
</mask>
<path d="M0 20C0 19.4477 0.447715 19 1 19H31C31.5523 19 32 19.4477 32 20V25C32 27.2091 30.2091 29 28 29H4C1.79086 29 0 27.2091 0 25V20Z" stroke="#263942" stroke-width="4" mask="url(#path-2-inside-1)"/>
<path d="M3 30V28" stroke="#263942" stroke-width="2" stroke-linecap="round" stroke-linejoin="round"/>
<line x1="29" y1="30" x2="29" y2="28" stroke="#263942" stroke-width="2" stroke-linecap="round" stroke-linejoin="round"/>
<path d="M27 8V7C27 4.23858 24.7614 2 22 2V2C19.2386 2 17 4.23858 17 7V8" stroke="#263942" stroke-width="2"/>
<path d="M13 9C13 6.79086 14.7909 5 17 5C19.2091 5 21 6.79086 21 9V10H13V9Z" fill="#386AD9"/>
</svg>
