<svg width="32" height="32" viewBox="0 0 32 32" fill="none" xmlns="http://www.w3.org/2000/svg">
<rect x="1" y="6" width="30" height="21" rx="2" stroke="#263942" stroke-width="2"/>
<path d="M16 29V27" stroke="#263942" stroke-width="2" stroke-linecap="round" stroke-linejoin="round"/>
<mask id="path-3-inside-1" fill="white">
<path d="M8 30.9802C8 29.8866 8.88656 29 9.9802 29H22.0198C23.1134 29 24 29.8866 24 30.9802C24 30.9911 23.9911 31 23.9802 31H8.0198C8.00887 31 8 30.9911 8 30.9802Z"/>
</mask>
<path d="M9.9802 31H22.0198V27H9.9802V31ZM23.9802 29H8.0198V33H23.9802V29ZM8.0198 29C9.11342 29 10 29.8865 10 30.9802H6C6 32.0957 6.90431 33 8.0198 33V29ZM22 30.9802C22 29.8866 22.8866 29 23.9802 29V33C25.0957 33 26 32.0957 26 30.9802H22ZM22.0198 31C22.0211 31 22.0202 31.0001 22.0179 30.9996C22.0158 30.9992 22.0135 30.9985 22.0115 30.9976C22.0077 30.996 22.0061 30.9945 22.0058 30.9942C22.0055 30.9939 22.004 30.9923 22.0024 30.9885C22.0015 30.9865 22.0008 30.9842 22.0004 30.9821C21.9999 30.9798 22 30.9789 22 30.9802H26C26 28.782 24.218 27 22.0198 27V31ZM9.9802 27C7.782 27 6 28.782 6 30.9802H10C10 30.9789 10.0001 30.9798 9.99963 30.9821C9.99918 30.9842 9.99848 30.9865 9.99762 30.9885C9.99601 30.9923 9.99454 30.9939 9.9942 30.9942C9.99386 30.9945 9.99234 30.996 9.98852 30.9976C9.98648 30.9985 9.98424 30.9992 9.98207 30.9996C9.97979 31.0001 9.97894 31 9.9802 31V27Z" fill="#263942" mask="url(#path-3-inside-1)"/>
<path d="M2 26L30 26" stroke="#263942" stroke-width="2" stroke-linecap="round" stroke-linejoin="round"/>
<path d="M20 16L14 19.4641L14 12.5359L20 16Z" stroke="#386AD9" stroke-width="2"/>
</svg>
