<svg width="32" height="32" viewBox="0 0 32 32" fill="none" xmlns="http://www.w3.org/2000/svg">
<circle cx="16.0315" cy="28.2876" r="2.89823" fill="#386AD9"/>
<path fill-rule="evenodd" clip-rule="evenodd" d="M0.714606 16.4719C1.14842 16.8476 1.80725 16.7786 2.18223 16.3442C5.53575 12.459 10.4965 10 16.0315 10C21.5665 10 26.5272 12.459 29.8807 16.3442C30.2557 16.7786 30.9145 16.8476 31.3484 16.4719C31.749 16.1249 31.8101 15.5233 31.4659 15.1202C27.7449 10.7626 22.2108 8 16.0315 8C9.85217 8 4.31811 10.7626 0.597044 15.1202C0.252848 15.5233 0.313937 16.1249 0.714606 16.4719Z" fill="#263942"/>
<path fill-rule="evenodd" clip-rule="evenodd" d="M5.08778 20.2593C5.52852 20.6409 6.1993 20.5604 6.58075 20.1194C8.87121 17.4717 12.2557 15.7964 16.0314 15.7964C19.8071 15.7964 23.1916 17.4717 25.482 20.1194C25.8635 20.5604 26.5343 20.641 26.975 20.2593C27.3682 19.9188 27.4351 19.3301 27.0991 18.9331C24.441 15.7912 20.4691 13.7964 16.0314 13.7964C11.5937 13.7964 7.62182 15.7912 4.96365 18.9331C4.6277 19.3301 4.6946 19.9188 5.08778 20.2593Z" fill="#263942"/>
<path fill-rule="evenodd" clip-rule="evenodd" d="M9.44736 24.0347C9.90503 24.4311 10.607 24.3171 11.0073 23.8629C12.2341 22.471 14.0302 21.5929 16.0315 21.5929C18.0327 21.5929 19.8289 22.471 21.0556 23.863C21.456 24.3172 22.1579 24.4311 22.6156 24.0347C22.9893 23.7111 23.0682 23.1558 22.7545 22.7738C21.1599 20.8317 18.7404 19.5929 16.0315 19.5929C13.3226 19.5929 10.903 20.8317 9.30843 22.7737C8.99474 23.1558 9.07369 23.7111 9.44736 24.0347Z" fill="#263942"/>
</svg>
