<svg width="32" height="32" viewBox="0 0 32 32" fill="none" xmlns="http://www.w3.org/2000/svg">
<rect width="32" height="32" fill="white"/>
<mask id="path-1-inside-1" fill="white">
<path fill-rule="evenodd" clip-rule="evenodd" d="M13.3541 7C12.5363 7 11.8008 7.4979 11.4971 8.25722L10 12H5C2.23858 12 0 14.2386 0 17V27C0 29.7614 2.23858 32 5 32H27C29.7614 32 32 29.7614 32 27V17C32 14.2386 29.7614 12 27 12H22L20.5029 8.25722C20.1992 7.4979 19.4637 7 18.6459 7H13.3541Z"/>
</mask>
<path d="M11.4971 8.25722L9.64016 7.51444L9.64016 7.51444L11.4971 8.25722ZM10 12V14H11.3541L11.857 12.7428L10 12ZM22 12L20.143 12.7428L20.6459 14H22V12ZM20.5029 8.25722L18.6459 9L18.6459 9L20.5029 8.25722ZM13.3541 9L13.3541 9V5C11.7184 5 10.2476 5.99581 9.64016 7.51444L13.3541 9ZM11.857 12.7428L13.3541 9L9.64016 7.51444L8.14305 11.2572L11.857 12.7428ZM5 14H10V10H5V14ZM2 17C2 15.3431 3.34315 14 5 14V10C1.13401 10 -2 13.134 -2 17H2ZM2 27V17H-2V27H2ZM5 30C3.34315 30 2 28.6569 2 27H-2C-2 30.866 1.13401 34 5 34V30ZM27 30H5V34H27V30ZM30 27C30 28.6569 28.6569 30 27 30V34C30.866 34 34 30.866 34 27H30ZM30 17V27H34V17H30ZM27 14C28.6569 14 30 15.3431 30 17H34C34 13.134 30.866 10 27 10V14ZM22 14H27V10H22V14ZM18.6459 9L20.143 12.7428L23.857 11.2572L22.3598 7.51444L18.6459 9ZM18.6459 9L18.6459 9L22.3598 7.51444C21.7524 5.9958 20.2816 5 18.6459 5V9ZM13.3541 9H18.6459V5H13.3541V9Z" fill="#263942" mask="url(#path-1-inside-1)"/>
<circle cx="16" cy="21" r="4" stroke="#386AD9" stroke-width="2"/>
<line x1="23" y1="17" x2="27" y2="17" stroke="#263942" stroke-width="2" stroke-linecap="round" stroke-linejoin="round"/>
</svg>
