<svg width="278" height="250" viewBox="0 0 278 250" fill="none" xmlns="http://www.w3.org/2000/svg">
<circle cx="153" cy="125" r="125" fill="url(#paint0_linear)"/>
<g filter="url(#filter0_d)">
<rect x="23" y="44" width="216" height="162" rx="15" fill="white"/>
</g>
<path d="M23 59C23 50.7157 29.7157 44 38 44H224C232.284 44 239 50.7157 239 59V68H23V59Z" fill="#8B99B5"/>
<rect x="37" y="80" width="89" height="67" rx="6" fill="#8B99B5"/>
<rect x="37" y="159" width="89" height="64" rx="6" fill="#8B99B5"/>
<rect x="138" y="114" width="84" height="77" rx="6" fill="#8B99B5"/>
<rect x="138" y="80" width="41" height="8" rx="4" fill="#8B99B5"/>
<rect x="138" y="94" width="84" height="8" rx="4" fill="#8B99B5"/>
<circle cx="23" cy="94" r="23" fill="#1ABC9C"/>
<circle cx="23" cy="94" r="16" fill="#21DAB5"/>
<path d="M14 93.8529L18.5779 98.645C19.306 99.4072 20.5006 99.4735 21.3085 98.7965L33 89" stroke="white" stroke-width="3" stroke-linecap="round"/>
<g filter="url(#filter1_d)">
<rect x="204" y="147" width="60" height="80" rx="10" fill="white"/>
</g>
<rect x="223" y="200" width="23" height="6" rx="3" fill="#8B99B5"/>
<rect x="211" y="210" width="47" height="6" rx="3" fill="#8B99B5"/>
<circle cx="234.405" cy="173.838" r="17.8378" fill="#FA781E"/>
<circle cx="234.405" cy="170.838" r="5.94595" fill="white"/>
<circle cx="234.5" cy="189.5" r="10.5" fill="#FFFCFC"/>
<defs>
<filter id="filter0_d" x="2" y="35" width="246" height="192" filterUnits="userSpaceOnUse" color-interpolation-filters="sRGB">
<feFlood flood-opacity="0" result="BackgroundImageFix"/>
<feColorMatrix in="SourceAlpha" type="matrix" values="0 0 0 0 0 0 0 0 0 0 0 0 0 0 0 0 0 0 127 0"/>
<feOffset dx="-6" dy="6"/>
<feGaussianBlur stdDeviation="7.5"/>
<feColorMatrix type="matrix" values="0 0 0 0 0.758333 0 0 0 0 0.752014 0 0 0 0 0.752014 0 0 0 0.25 0"/>
<feBlend mode="normal" in2="BackgroundImageFix" result="effect1_dropShadow"/>
<feBlend mode="normal" in="SourceGraphic" in2="effect1_dropShadow" result="shape"/>
</filter>
<filter id="filter1_d" x="183" y="138" width="90" height="110" filterUnits="userSpaceOnUse" color-interpolation-filters="sRGB">
<feFlood flood-opacity="0" result="BackgroundImageFix"/>
<feColorMatrix in="SourceAlpha" type="matrix" values="0 0 0 0 0 0 0 0 0 0 0 0 0 0 0 0 0 0 127 0"/>
<feOffset dx="-6" dy="6"/>
<feGaussianBlur stdDeviation="7.5"/>
<feColorMatrix type="matrix" values="0 0 0 0 0.758333 0 0 0 0 0.752014 0 0 0 0 0.752014 0 0 0 0.25 0"/>
<feBlend mode="normal" in2="BackgroundImageFix" result="effect1_dropShadow"/>
<feBlend mode="normal" in="SourceGraphic" in2="effect1_dropShadow" result="shape"/>
</filter>
<linearGradient id="paint0_linear" x1="243" y1="39" x2="56" y2="204" gradientUnits="userSpaceOnUse">
<stop stop-color="#F6F7FE"/>
<stop offset="1" stop-color="#F5F7FF" stop-opacity="0"/>
</linearGradient>
</defs>
</svg>
