<svg width="32" height="32" viewBox="0 0 32 32" fill="none" xmlns="http://www.w3.org/2000/svg">
<path d="M21 28C21 28.1512 20.9189 28.4245 20.4836 28.7987C20.0517 29.1701 19.3681 29.5499 18.4364 29.8886C16.5814 30.5632 13.9523 31 11 31C8.04768 31 5.41865 30.5632 3.56357 29.8886C2.63192 29.5499 1.94833 29.1701 1.51636 28.7987C1.08113 28.4245 1 28.1512 1 28C1 27.8488 1.08113 27.5755 1.51636 27.2013C1.94833 26.8299 2.63192 26.4501 3.56357 26.1114C5.41865 25.4368 8.04768 25 11 25C13.9523 25 16.5814 25.4368 18.4364 26.1114C19.3681 26.4501 20.0517 26.8299 20.4836 27.2013C20.9189 27.5755 21 27.8488 21 28Z" stroke="#263942" stroke-width="2"/>
<path d="M18 7.84906C18 9.87309 17.1358 14.9265 15.7026 19.5012C14.9884 21.7807 14.1543 23.8699 13.2562 25.3689C12.8064 26.1195 12.3668 26.6773 11.9547 27.0371C11.5433 27.3962 11.2288 27.5 11 27.5C10.7712 27.5 10.4567 27.3962 10.0453 27.0371C9.63317 26.6773 9.19359 26.1195 8.74384 25.3689C7.84566 23.8699 7.01158 21.7807 6.29741 19.5012C4.86417 14.9265 4 9.87309 4 7.84906C4 4.0843 7.11596 1 11 1C14.884 1 18 4.0843 18 7.84906Z" fill="white" stroke="#263942" stroke-width="2"/>
<circle cx="11" cy="8" r="3" stroke="#386AD9" stroke-width="2"/>
</svg>
